<svg id="Capa_1" data-name="Capa 1" xmlns="http://www.w3.org/2000/svg" viewBox="0 0 176.2 112.32"><defs><style>.cls-1{fill:none;}.cls-1,.cls-3{stroke:#caa37f;stroke-miterlimit:10;}.cls-2,.cls-3{fill:#caa37f;}.cls-3{stroke-width:0.5px;}</style></defs><polyline class="cls-1" points="34.04 97.92 9.55 97.92 9.55 9.64 166.64 9.64 166.64 97.92 139.77 97.92 139.77 97.92"/><path class="cls-2" d="M90.32,87.28q0,.84-2.07.84H63.65c-1.38,0-2.07-.3-2.07-.89s1-1,2.85-1c3.35,0,5.38-.37,6.1-1.09q.5-.5.5-6.6V27.49c0,.07-.37,1.22-1.09,3.45Q66,42.83,58.48,66.75L53.9,82.41C53,85.5,52.33,87,51.93,87s-1-.79-1.47-2.37q-2.85-9-16.08-44.7l-3.9-10.51V66.57q0,18,.29,18.2c.46.86,2,1.28,4.73,1.28,2.16,0,3.25.33,3.25,1s-.69,1.09-2.07,1.09a13.32,13.32,0,0,1-2.36-.2,17.72,17.72,0,0,0-2.46-.19l-11.32.39c-1.18,0-1.77-.3-1.77-.89s1.87-1,5.61-1.08c1.57,0,2.49-.26,2.75-.79s.4-2.23.4-5.13V33q0-8.18-.2-8.87a2.67,2.67,0,0,0-1.67-1.87,23.89,23.89,0,0,0-5.52-.79c-1.05-.06-1.57-.36-1.57-.88,0-.73,1-1.09,2.89-1.09h6.86c3.92,0,6.67,0,8.27-.07q.48,1.28,5.71,15.48,2.23,5.93,12.58,34.48,1.84-6.4,3.8-12.6L69.06,24.22c.6-1.85,1.12-3.39,1.58-4.6l14.83-.1a12,12,0,0,1,3.76.3,1,1,0,0,1,.5.89c0,.65-.56,1-1.68,1a23,23,0,0,0-3.74.2,4.92,4.92,0,0,0-3.25,1.58q-.48.69-.49,11.55v45.9c0,2.63.26,4.18.79,4.64q1.27.89,6.4.88h.59C89.66,86.44,90.32,86.73,90.32,87.28Z"/><path class="cls-2" d="M157.62,20.51c0,.65-.81.94-2.43.88H151.3c-1,0-1.65.17-1.85.53a10,10,0,0,0-.29,3.25v56c0,3.44,0,5.44-.1,6s-.26.87-.58.87-.84-.36-1.36-1.07L134.69,68.75Q123.88,52.82,108.39,29V83.45a1.72,1.72,0,0,0,1.48,1.61,39.26,39.26,0,0,0,6.59.44c.85,0,1.27.26,1.27.78s-.84,1-2.53,1c-.58,0-2.43-.1-5.54-.29-1-.06-2-.1-3-.1.07,0-.5.07-1.7.2s-3,.19-5.5.19h-1c-1.49,0-2.24-.29-2.24-.87s.65-.88,2-.88q5.75-.1,6.66-.73t.93-4.14v-48q0-8.09-3.31-10.13-1.56-1-5.55-1c-1.68,0-2.53-.34-2.53-1s.49-.92,1.46-.92c1.3,0,3,.06,5,.19l3.21.2,2.72-.1q3.21,0,6.23-.29l33.56,50.1V26.35c0-2,0-3.23-.09-3.65a1.3,1.3,0,0,0-.78-1,16.59,16.59,0,0,0-4.67-.34c-2.34,0-3.5-.3-3.5-.88s.77-1,2.33-1h15.66C156.91,19.54,157.62,19.86,157.62,20.51Z"/><path class="cls-3" d="M42,100.28a2,2,0,0,1-2,2H37.8V96.2H40a1.23,1.23,0,0,1,.77,2.2A2,2,0,0,1,42,100.28Zm-3.82-2H40a.82.82,0,0,0,.82-.8.84.84,0,0,0-.24-.58.82.82,0,0,0-.57-.24H38.22Zm0,3.6H40a1.59,1.59,0,0,0,0-3.18H38.21Z"/><path class="cls-3" d="M45.77,99.25a3,3,0,1,1,3,3A3,3,0,0,1,45.77,99.25Zm.42,0a2.61,2.61,0,1,0,2.6-2.62A2.6,2.6,0,0,0,46.19,99.25Z"/><path class="cls-3" d="M56.77,96.21a3,3,0,0,1,0,6.07H55.56V96.2h1.21Zm2.6,3a2.61,2.61,0,0,0-2.6-2.62H56v5.23h.79A2.6,2.6,0,0,0,59.37,99.25Z"/><path class="cls-3" d="M67.25,96.21,65.15,100v2.26h-.42v-2.19L62.64,96.2h.48l1.81,3.35,1.85-3.35Z"/><path class="cls-3" d="M76.9,101.86a1.3,1.3,0,0,0,.64-2.44l-1.38-.81a1.29,1.29,0,0,1,.64-2.4h.14a1.27,1.27,0,0,1,1.1.64l-.36.21a.87.87,0,0,0-.74-.42H76.8a.84.84,0,0,0-.82.64.87.87,0,0,0,.4,1l1.39.8a1.74,1.74,0,0,1,.79,2,1.71,1.71,0,0,1-1.67,1.28h0a1.73,1.73,0,0,1-1.38-.69l.34-.26a1.28,1.28,0,0,0,1,.52Z"/><path class="cls-3" d="M83.53,99.28l2.69,3h-.57l-2.4-2.68-.46.52v2.16h-.42V96.2h.42v3.27l2.86-3.27h.56Z"/><path class="cls-3" d="M89.94,102.28V96.2h.42v6.08Z"/><path class="cls-3" d="M94.52,102.28H94.1V96.13l3.78,4.94V96.21h.42v6.11l-3.78-4.94Z"/><path class="cls-3" d="M111.45,100.21v2.07H111V96.2h.41v3.58h3.37V96.2h.42v6.08h-.42v-2.07Z"/><path class="cls-3" d="M119,102.28l2.48-6.14,2.46,6.14h-.46l-.52-1.31h-3l-.53,1.31Zm1.16-1.73h2.63l-1.31-3.27Z"/><path class="cls-3" d="M127.65,102.28V96.2h.42v6.08Z"/><path class="cls-3" d="M133.91,102.68V96.6h1.65c.77,0,1.41.81,1.47,1.85a2,2,0,0,1-1.25,2.13l1.18,2.1h-.4l-1.17-2.07h-1.17v2.07Zm.31-2.49h1.34c.65,0,1.17-.71,1.17-1.58S136.21,97,135.56,97h-1.34Z"/></svg>